<?xml version="1.0" standalone="no"?><!DOCTYPE svg PUBLIC "-//W3C//DTD SVG 1.1//EN" "http://www.w3.org/Graphics/SVG/1.1/DTD/svg11.dtd"><svg t="1779361846360" class="icon" viewBox="0 0 1024 1024" version="1.1" xmlns="http://www.w3.org/2000/svg" p-id="5769" xmlns:xlink="http://www.w3.org/1999/xlink" width="200" height="200"><path d="M512 32C777.09753594 32 992 246.90246406 992 512S777.09753594 992 512 992 32 777.09753594 32 512 246.90246406 32 512 32z m-101.23186219 332.83667625l-0.902235 0.02750719c-9.00309469 0.43186219-22.73742094 1.91449875-36.90361031 3.6777075l-3.2733525 0.41260781-3.40263656 0.43186219c-8.582235 1.10853844-17.07644719 2.27484281-24.53638969 3.32836687l-2.44263563 0.34659c-7.21512938 1.02601687-13.28596031 1.92275062-17.26349624 2.51690531a10.271175 10.271175 0 0 0-7.46269313 5.25937032c-5.18510063 9.91908281-19.79965594 34.31793656-27.9087675 53.36114625a19.87667625 19.87667625 0 0 0 4.34062969 22.00573031l10.83232125 8.70601688 37.51977094 28.80275062 0.44011406 0.36034406a10.01260781 10.01260781 0 0 1 3.02578875 10.5710025c-3.30911156 10.46097375-0.34108875 2.84974219-1.60366781 7.76802375a9.9933525 9.9933525 0 0 0 6.29088843 11.87209125c17.21948438 6.25512938 63.26647594 30.36790875 80.98659 35.37421219 4.98704906 1.39461281 4.12607437-3.66395438 6.04607438-8.42544375l-1.96401188-2.60767969 110.50177688 84.17191969-44.08297969 74.59667625-0.29982844 0.55289438a9.97409719 9.97409719 0 0 0 0.29157563 9.46521468 10.07587406 10.07587406 0 0 0 8.71977093 5.01730688h216.07151907l0.67392562-0.01100344a15.0821775 15.0821775 0 0 0 12.44148938-7.46819438 14.92538719 14.92538719 0 0 0-0.00550125-15.04091718L652.14074469 540.33237781l-0.4153575-0.69868125c-13.92137531-22.66590281-42.14097375-5.97730688-55.74326719 17.48630344l-36.71931187 51.16332375-19.43931282-18.28401188 0.12928407-1.06452656a26.11805156 26.11805156 0 0 0-0.30257907-7.45719187c-6.24412594-36.12790875-33.99885375-159.73409719-54.29914031-179.58876844a8.00733562 8.00733562 0 0 0-2.26108875-1.595415l-62.83736344-33.12412594-0.80596031-0.40160531a20.03071594 20.03071594 0 0 0-9.58074469-1.90624594z m-65.72561625 172.5799425a10.18040156 10.18040156 0 0 0-12.06464156 7.17386813c-7.51220625 27.49616063-38.20469906 128.80779375-47.54613188 162.31151906a10.06762219 10.06762219 0 0 0 1.710945 8.81054437A10.13088844 10.13088844 0 0 0 295.21879625 719.67908281h17.835645l0.55289438-0.01375312a10.01810906 10.01810906 0 0 0 8.77478437-6.19461375c4.21409719-10.07037281 11.75106-31.19312344 19.49432719-52.60744969l1.13604562-3.13581656 0.77845313-2.14830938c10.52149031-29.02280812 20.94945562-56.96183344 23.48286468-56.96183343 34.1666475-0.21455625 62.89788 43.80790875 61.78934157 57.00309468-1.43037281 16.26773625-10.75530094 35.87484281-18.05020125 49.05352407a10.10613187 10.10613187 0 0 0 0.15404062 10.01535843A10.16939813 10.16939813 0 0 0 419.87850969 719.67908281h20.42957062l0.58865344-0.01650375a10.12813781 10.12813781 0 0 0 8.11736344-4.92653343c18.43805156-30.93180563 24.58040156-50.01902625 24.64091718-61.50326625 0.22830938-28.50017156-27.63919781-73.27083094-43.10647593-80.38418344 0 0-19.17249281-9.33593156-40.32-18.54532969l-1.9887675-0.86097375c-1.99151906-0.86372531-3.99679125-1.72194844-6.00206344-2.56641844l-2.28859594-0.96275062c-13.34097375-5.57845313-26.37386813-10.5132375-34.90659-12.49375406z m113.54956969-53.01455531c3.79873969-8.23839563 15.99816656-7.58647594 18.76538719 1.2598275 7.25088844 23.41409719 17.47805156 58.73054438 28.35163312 82.41971344L444.88252156 518.02406844l13.49501438-33.11862469z m-112.6775925-78.5934675l21.00171938 0.59690531 0.49237781 0.02200594c7.15736344 0.47587406 11.50624688 8.27690531 8.01833812 14.69982844-4.84126031 8.86555875-9.26991375 19.18349531-15.01616062 33.92183343a10.040115 10.040115 0 0 1-7.19587406 6.14785125 10.09512938 10.09512938 0 0 1-9.13512844-2.5444125l-20.08573125-18.78189187-0.04676156-0.06326625c-0.50063062-1.11403969 4.28836688-11.91060187 8.87656125-21.15300844l0.68492812-1.37260781c1.13604562-2.26108875 2.24458406-4.39289438 3.23484281-6.21661875a10.0511175 10.0511175 0 0 1 9.17088844-5.25661875zM489.75495688 268.56160438c-27.66120375 0.12103125-50.16206344 22.2422925-50.67369657 49.81547343-0.5088825 27.57318094 21.16126031 50.50590281 48.79770844 51.64194844a50.94326625 50.94326625 0 0 0 45.50785031-24.1980525 50.61868219 50.61868219 0 0 0 0.9489975-51.40813688A50.93226375 50.93226375 0 0 0 489.75495688 268.56160438z" fill="#13227a" p-id="5770"></path></svg>